<?xml version="1.0" encoding="iso-8859-1"?>
<!-- Generator: Adobe Illustrator 19.0.0, SVG Export Plug-In . SVG Version: 6.00 Build 0)  -->
<svg version="1.1" id="Layer_1" xmlns="http://www.w3.org/2000/svg" xmlns:xlink="http://www.w3.org/1999/xlink" x="0px" y="0px"
	 viewBox="0 0 512 512" style="enable-background:new 0 0 512 512;" xml:space="preserve">
<path style="fill:#6B563C;" d="M482.059,61.44L256,61.979v442.476h194.021c30.015,0,54.434-24.419,54.434-54.434V83.835
	C504.455,71.486,494.409,61.44,482.059,61.44z"/>
<path style="fill:#5F4C37;" d="M482.059,61.44l-31.398,0.074c11.661,0.766,20.919,10.471,20.919,22.321v366.186
	c0,30.015-24.419,54.434-54.434,54.434h32.876c30.015,0,54.434-24.419,54.434-54.434V83.835
	C504.455,71.486,494.409,61.44,482.059,61.44z"/>
<path style="fill:#ECE5DD;" d="M364.544,7.545H86.847c-14.032,0-25.407,11.375-25.407,25.407v377.605
	c0,10.187,8.258,18.445,18.444,18.445h355.952c8.132,0,14.724-6.592,14.724-14.724V114.551c0-0.654,0-9.995,0-9.995L364.544,7.545z"
	/>
<path style="fill:#D9CBBD;" d="M417.742,93.734c0,0-0.058,20.163-0.058,20.817v299.727c0,8.132-6.592,14.724-14.724,14.724h32.876
	c8.132,0,14.724-6.592,14.724-14.724V114.551c0-0.654,0-9.995,0-9.995L417.742,93.734z"/>
<path style="fill:#FFB656;" d="M228.514,185.398v-47.966c0-14.562-11.846-26.408-26.408-26.408s-26.408,11.846-26.408,26.408v47.966
	h-38.804v-47.966c0-35.957,29.255-65.213,65.213-65.213s65.213,29.255,65.213,65.213v47.966H228.514z"/>
<path style="fill:#957755;" d="M414.125,489.458c-11.096-10.111-17.46-24.484-17.46-39.437V202.105
	c0-30.015-24.419-54.434-54.434-54.434H61.979c-30.015,0-54.434,24.419-54.434,54.434v247.916c0,30.015,24.419,54.434,54.434,54.434
	h368.607L414.125,489.458z"/>
<path style="fill:#7F6749;" d="M414.125,489.458c-11.096-10.111-17.46-24.484-17.46-39.437V202.105
	c0-30.015-24.419-54.434-54.434-54.434h-31.798c30.015,0,54.434,24.419,54.434,54.434v247.916c0,14.953,6.364,29.326,17.46,39.437
	l16.461,14.997h31.798L414.125,489.458z"/>
<path style="fill:#6B563C;" d="M159.528,321.491L7.545,256.356v-54.25c0-30.015,24.419-54.434,54.434-54.434h280.253
	c30.015,0,54.434,24.419,54.434,54.434v54.25l-151.983,65.135H159.528z"/>
<path style="fill:#5F4C37;" d="M342.232,147.672h-31.798c30.015,0,54.434,24.419,54.434,54.434v67.878l31.798-13.628v-54.25
	C396.665,172.09,372.247,147.672,342.232,147.672z"/>
<path style="fill:#FFB656;" d="M225.62,287.798c11.107,0,20.142,9.035,20.142,20.142v47.027c0,11.107-9.035,20.142-20.142,20.142
	h-47.027c-11.107-0.001-20.142-9.036-20.142-20.142v-47.027c0-11.107,9.035-20.142,20.142-20.142H225.62z"/>
<path style="fill:#FFA733;" d="M225.62,287.798h-32.876c11.107,0,20.142,9.035,20.142,20.142v47.027
	c0,11.107-9.035,20.142-20.142,20.142h32.876c11.107,0,20.142-9.035,20.142-20.142v-47.027
	C245.76,296.833,236.725,287.798,225.62,287.798z"/>
<path style="fill:#B39A7C;" d="M363.407,74.539c0,11.203,9.114,20.316,20.315,20.316l66.838,9.701L364.485,7.545L363.407,74.539z"/>
<path d="M482.059,53.895h-64.375c-0.73,0-1.433,0.106-2.105,0.287l-38.329-43.12C371.004,4.031,362.026,0,352.621,0H86.847
	c-18.17,0-32.952,14.782-32.952,32.952v107.718C23.527,144.646,0,170.671,0,202.105v53.815c0,0.028,0,0.056,0,0.084v194.017
	C0,484.197,27.803,512,61.979,512h388.042C484.197,512,512,484.197,512,450.021V83.835C512,67.326,498.568,53.895,482.059,53.895z
	 M371.874,29.348l60.144,67.663h-48.452c-6.447,0-11.692-5.245-11.692-11.693V29.348z M70.063,32.952
	c0-9.255,7.529-16.784,16.784-16.784H352.62c1.043,0,2.073,0.114,3.084,0.304v68.845c0.001,15.363,12.499,27.861,27.862,27.861
	h58.308c0.038,0.455,0.063,0.913,0.063,1.372v305.828h-37.726V256.004c0-0.028,0-0.056,0-0.084v-53.815
	c0-34.176-27.803-61.979-61.979-61.979h-67.368v-2.695c0-40.119-32.639-72.758-72.758-72.758s-72.758,32.639-72.758,72.758v2.695
	H70.063V32.952z M202.105,102.4c-19.317,0-35.032,15.715-35.032,35.032v2.695h-21.558v-2.695c0-31.203,25.387-56.589,56.589-56.589
	s56.589,25.387,56.589,56.589v2.695h-21.558v-2.695C237.137,118.115,221.422,102.4,202.105,102.4z M220.968,137.432v2.695h-37.726
	v-2.695c0-10.401,8.463-18.863,18.863-18.863S220.968,127.031,220.968,137.432z M61.979,495.832c-25.3,0-45.811-20.51-45.811-45.811
	V268.26l134.737,57.744v28.962c0,15.291,12.396,27.687,27.687,27.687h47.027c15.29,0,27.686-12.396,27.686-27.686v-28.962
	l45.014-19.291c2.973-1.274,4.9-4.197,4.9-7.431c0-5.803-5.934-9.717-11.268-7.431l-38.646,16.562v-0.474
	c0-15.291-12.396-27.687-27.686-27.687h-47.027c-15.291,0-27.687,12.396-27.687,27.687v0.474L16.168,250.67v-48.565
	c0-25.3,20.51-45.811,45.811-45.811h280.253c25.3,0,45.811,20.51,45.811,45.811v48.565l-60.446,25.905
	c-2.973,1.274-4.9,4.197-4.9,7.431c0,5.803,5.934,9.717,11.268,7.431l54.078-23.177v181.761c0,18.13,7.827,34.467,20.276,45.811
	H61.979z M167.074,354.967v-34.213c0-0.028,0-0.056,0-0.084v-12.731c0-6.351,5.167-11.518,11.518-11.518h47.027
	c6.351,0,11.518,5.167,11.518,11.518v12.731c0,0.028,0,0.056,0,0.084v34.213c0,6.351-5.167,11.518-11.518,11.518h-47.027
	C172.241,366.484,167.074,361.317,167.074,354.967z M495.832,450.021c0,25.26-20.55,45.811-45.811,45.811
	s-45.811-20.55-45.811-45.811v-13.474h45.811c4.466,0,8.084-3.618,8.084-8.084V114.551c0-8.079-2.956-15.854-8.323-21.893
	l-20.084-22.595h52.362c7.595,0,13.772,6.177,13.772,13.772V450.021z"/>
<g>
</g>
<g>
</g>
<g>
</g>
<g>
</g>
<g>
</g>
<g>
</g>
<g>
</g>
<g>
</g>
<g>
</g>
<g>
</g>
<g>
</g>
<g>
</g>
<g>
</g>
<g>
</g>
<g>
</g>
</svg>
